<svg aria-roledescription="class" role="graphics-document document" viewBox="0 0 103.4375 368" height="368" class="classDiagram" xmlns="http://www.w3.org/2000/svg" width="103.4375" id="container"><style>#container{font-family:"trebuchet ms",verdana,arial,sans-serif;font-size:16px;fill:#333;}#container .error-icon{fill:#552222;}#container .error-text{fill:#552222;stroke:#552222;}#container .edge-thickness-normal{stroke-width:1px;}#container .edge-thickness-thick{stroke-width:3.5px;}#container .edge-pattern-solid{stroke-dasharray:0;}#container .edge-thickness-invisible{stroke-width:0;fill:none;}#container .edge-pattern-dashed{stroke-dasharray:3;}#container .edge-pattern-dotted{stroke-dasharray:2;}#container .marker{fill:#333333;stroke:#333333;}#container .marker.cross{stroke:#333333;}#container svg{font-family:"trebuchet ms",verdana,arial,sans-serif;font-size:16px;}#container p{margin:0;}#container g.classGroup text{fill:#9370DB;stroke:none;font-family:"trebuchet ms",verdana,arial,sans-serif;font-size:10px;}#container g.classGroup text .title{font-weight:bolder;}#container .nodeLabel,#container .edgeLabel{color:#131300;}#container .edgeLabel .label rect{fill:#ECECFF;}#container .label text{fill:#131300;}#container .labelBkg{background:#ECECFF;}#container .edgeLabel .label span{background:#ECECFF;}#container .classTitle{font-weight:bolder;}#container .node rect,#container .node circle,#container .node ellipse,#container .node polygon,#container .node path{fill:#ECECFF;stroke:#9370DB;stroke-width:1px;}#container .divider{stroke:#9370DB;stroke-width:1;}#container g.clickable{cursor:pointer;}#container g.classGroup rect{fill:#ECECFF;stroke:#9370DB;}#container g.classGroup line{stroke:#9370DB;stroke-width:1;}#container .classLabel .box{stroke:none;stroke-width:0;fill:#ECECFF;opacity:0.5;}#container .classLabel .label{fill:#9370DB;font-size:10px;}#container .relation{stroke:#333333;stroke-width:1;fill:none;}#container .dashed-line{stroke-dasharray:3;}#container .dotted-line{stroke-dasharray:1 2;}#container #compositionStart,#container .composition{fill:#333333!important;stroke:#333333!important;stroke-width:1;}#container #compositionEnd,#container .composition{fill:#333333!important;stroke:#333333!important;stroke-width:1;}#container #dependencyStart,#container .dependency{fill:#333333!important;stroke:#333333!important;stroke-width:1;}#container #dependencyStart,#container .dependency{fill:#333333!important;stroke:#333333!important;stroke-width:1;}#container #extensionStart,#container .extension{fill:transparent!important;stroke:#333333!important;stroke-width:1;}#container #extensionEnd,#container .extension{fill:transparent!important;stroke:#333333!important;stroke-width:1;}#container #aggregationStart,#container .aggregation{fill:transparent!important;stroke:#333333!important;stroke-width:1;}#container #aggregationEnd,#container .aggregation{fill:transparent!important;stroke:#333333!important;stroke-width:1;}#container #lollipopStart,#container .lollipop{fill:#ECECFF!important;stroke:#333333!important;stroke-width:1;}#container #lollipopEnd,#container .lollipop{fill:#ECECFF!important;stroke:#333333!important;stroke-width:1;}#container .edgeTerminals{font-size:11px;line-height:initial;}#container .classTitleText{text-anchor:middle;font-size:18px;fill:#333;}#container :root{--mermaid-font-family:"trebuchet ms",verdana,arial,sans-serif;}</style><g><defs><marker orient="auto" markerHeight="240" markerWidth="190" refY="7" refX="18" class="marker aggregation class" id="container_class-aggregationStart"><path d="M 18,7 L9,13 L1,7 L9,1 Z"></path></marker></defs><defs><marker orient="auto" markerHeight="28" markerWidth="20" refY="7" refX="1" class="marker aggregation class" id="container_class-aggregationEnd"><path d="M 18,7 L9,13 L1,7 L9,1 Z"></path></marker></defs><defs><marker orient="auto" markerHeight="240" markerWidth="190" refY="7" refX="18" class="marker extension class" id="container_class-extensionStart"><path d="M 1,7 L18,13 V 1 Z"></path></marker></defs><defs><marker orient="auto" markerHeight="28" markerWidth="20" refY="7" refX="1" class="marker extension class" id="container_class-extensionEnd"><path d="M 1,1 V 13 L18,7 Z"></path></marker></defs><defs><marker orient="auto" markerHeight="240" markerWidth="190" refY="7" refX="18" class="marker composition class" id="container_class-compositionStart"><path d="M 18,7 L9,13 L1,7 L9,1 Z"></path></marker></defs><defs><marker orient="auto" markerHeight="28" markerWidth="20" refY="7" refX="1" class="marker composition class" id="container_class-compositionEnd"><path d="M 18,7 L9,13 L1,7 L9,1 Z"></path></marker></defs><defs><marker orient="auto" markerHeight="240" markerWidth="190" refY="7" refX="6" class="marker dependency class" id="container_class-dependencyStart"><path d="M 5,7 L9,13 L1,7 L9,1 Z"></path></marker></defs><defs><marker orient="auto" markerHeight="28" markerWidth="20" refY="7" refX="13" class="marker dependency class" id="container_class-dependencyEnd"><path d="M 18,7 L9,13 L14,7 L9,1 Z"></path></marker></defs><defs><marker orient="auto" markerHeight="240" markerWidth="190" refY="7" refX="13" class="marker lollipop class" id="container_class-lollipopStart"><circle r="6" cy="7" cx="7" fill="transparent" stroke="black"></circle></marker></defs><defs><marker orient="auto" markerHeight="240" markerWidth="190" refY="7" refX="1" class="marker lollipop class" id="container_class-lollipopEnd"><circle r="6" cy="7" cx="7" fill="transparent" stroke="black"></circle></marker></defs><g class="root"><g class="clusters"></g><g class="edgePaths"><path marker-start="url(#container_class-extensionStart)" style=";" class="edge-thickness-normal edge-pattern-solid relation" id="id_Item_Pokeball_1" d="M51.719,244L51.719,245.167C51.719,246.333,51.719,248.667,51.719,254C51.719,259.333,51.719,267.667,51.719,271.833L51.719,276"></path><path marker-start="url(#container_class-extensionStart)" style=";" class="edge-thickness-normal edge-pattern-solid relation" id="id_Thing_Item_2" d="M51.719,110L51.719,111.167C51.719,112.333,51.719,114.667,51.719,120C51.719,125.333,51.719,133.667,51.719,137.833L51.719,142"></path></g><g class="edgeLabels"><g class="edgeLabel"><g transform="translate(0, -12)" class="label"><foreignObject height="24" width="0"><div class="labelBkg" xmlns="http://www.w3.org/1999/xhtml" style="display: table-cell; white-space: nowrap; line-height: 1.5; max-width: 200px; text-align: center;"><span class="edgeLabel" style=";display: inline-block"></span></div></foreignObject></g></g><g class="edgeLabel"><g transform="translate(0, -12)" class="label"><foreignObject height="24" width="0"><div class="labelBkg" xmlns="http://www.w3.org/1999/xhtml" style="display: table-cell; white-space: nowrap; line-height: 1.5; max-width: 200px; text-align: center;"><span class="edgeLabel" style=";display: inline-block"></span></div></foreignObject></g></g></g><g class="nodes"><g transform="translate(51.71875, 184)" id="classId-Item-0" class="node default"><g class="basic label-container"><path style="" fill="#ECECFF" stroke-width="0" stroke="none" d="M-28.46875 -42 L28.46875 -42 L28.46875 42 L-28.46875 42"></path><path style="" fill="none" stroke-width="1.3" stroke="#9370DB" d="M-28.46875 -42 C-16.50926286649551 -42, -4.549775732991019 -42, 28.46875 -42 M-28.46875 -42 C-8.856193910060256 -42, 10.756362179879488 -42, 28.46875 -42 M28.46875 -42 C28.46875 -10.21975136537337, 28.46875 21.56049726925326, 28.46875 42 M28.46875 -42 C28.46875 -13.936067673270404, 28.46875 14.127864653459191, 28.46875 42 M28.46875 42 C16.346690723100245 42, 4.224631446200494 42, -28.46875 42 M28.46875 42 C10.42941198151286 42, -7.609926036974279 42, -28.46875 42 M-28.46875 42 C-28.46875 17.694336583501542, -28.46875 -6.611326832996916, -28.46875 -42 M-28.46875 42 C-28.46875 11.411079127896883, -28.46875 -19.177841744206233, -28.46875 -42"></path></g><g transform="translate(0, -18)" class="annotation-group text"></g><g transform="translate(-16.46875, -18)" class="label-group text"><g transform="translate(0,-12)" style="font-weight: bolder" class="label"><foreignObject height="24" width="32.9375"><div style="display: table-cell; white-space: nowrap; line-height: 1.5; max-width: 84px; text-align: center;" xmlns="http://www.w3.org/1999/xhtml"><span style="" class="nodeLabel markdown-node-label"><p>Item</p></span></div></foreignObject></g></g><g transform="translate(-16.46875, 30)" class="members-group text"></g><g transform="translate(-16.46875, 60)" class="methods-group text"></g><g style="" class="divider"><path style="" fill="none" stroke-width="1.3" stroke="#9370DB" d="M-28.46875 6 C-7.678407988482736 6, 13.111934023034529 6, 28.46875 6 M-28.46875 6 C-7.1261824323806415 6, 14.216385135238717 6, 28.46875 6"></path></g><g style="" class="divider"><path style="" fill="none" stroke-width="1.3" stroke="#9370DB" d="M-28.46875 24 C-7.848580451851284 24, 12.771589096297433 24, 28.46875 24 M-28.46875 24 C-6.721953791403568 24, 15.024842417192865 24, 28.46875 24"></path></g></g><g transform="translate(51.71875, 318)" id="classId-Pokeball-1" class="node default"><g class="basic label-container"><path style="" fill="#ECECFF" stroke-width="0" stroke="none" d="M-43.71875 -42 L43.71875 -42 L43.71875 42 L-43.71875 42"></path><path style="" fill="none" stroke-width="1.3" stroke="#9370DB" d="M-43.71875 -42 C-21.500277816225797 -42, 0.7181943675484064 -42, 43.71875 -42 M-43.71875 -42 C-15.03153270366813 -42, 13.65568459266374 -42, 43.71875 -42 M43.71875 -42 C43.71875 -21.577413756973566, 43.71875 -1.154827513947133, 43.71875 42 M43.71875 -42 C43.71875 -20.810062490612502, 43.71875 0.37987501877499597, 43.71875 42 M43.71875 42 C11.036829243918106 42, -21.645091512163788 42, -43.71875 42 M43.71875 42 C11.643642048836043 42, -20.431465902327915 42, -43.71875 42 M-43.71875 42 C-43.71875 17.300861388290823, -43.71875 -7.398277223418354, -43.71875 -42 M-43.71875 42 C-43.71875 18.42221286489669, -43.71875 -5.155574270206621, -43.71875 -42"></path></g><g transform="translate(0, -18)" class="annotation-group text"></g><g transform="translate(-31.71875, -18)" class="label-group text"><g transform="translate(0,-12)" style="font-weight: bolder" class="label"><foreignObject height="24" width="63.4375"><div style="display: table-cell; white-space: nowrap; line-height: 1.5; max-width: 114px; text-align: center;" xmlns="http://www.w3.org/1999/xhtml"><span style="" class="nodeLabel markdown-node-label"><p>Pokeball</p></span></div></foreignObject></g></g><g transform="translate(-31.71875, 30)" class="members-group text"></g><g transform="translate(-31.71875, 60)" class="methods-group text"></g><g style="" class="divider"><path style="" fill="none" stroke-width="1.3" stroke="#9370DB" d="M-43.71875 6 C-19.449887057639142 6, 4.818975884721716 6, 43.71875 6 M-43.71875 6 C-22.73941172008764 6, -1.760073440175283 6, 43.71875 6"></path></g><g style="" class="divider"><path style="" fill="none" stroke-width="1.3" stroke="#9370DB" d="M-43.71875 24 C-17.30831858738972 24, 9.102112825220559 24, 43.71875 24 M-43.71875 24 C-22.62637288632696 24, -1.5339957726539168 24, 43.71875 24"></path></g></g><g transform="translate(51.71875, 50)" id="classId-Thing-2" class="node default"><g class="basic label-container"><path style="" fill="#ECECFF" stroke-width="0" stroke="none" d="M-32.21875 -42 L32.21875 -42 L32.21875 42 L-32.21875 42"></path><path style="" fill="none" stroke-width="1.3" stroke="#9370DB" d="M-32.21875 -42 C-17.407396502919468 -42, -2.5960430058389328 -42, 32.21875 -42 M-32.21875 -42 C-8.74105803890686 -42, 14.736633922186279 -42, 32.21875 -42 M32.21875 -42 C32.21875 -20.101763847295704, 32.21875 1.7964723054085923, 32.21875 42 M32.21875 -42 C32.21875 -17.440867399555803, 32.21875 7.118265200888395, 32.21875 42 M32.21875 42 C15.425417650999925 42, -1.367914698000149 42, -32.21875 42 M32.21875 42 C11.237218641861134 42, -9.744312716277733 42, -32.21875 42 M-32.21875 42 C-32.21875 14.216707109079383, -32.21875 -13.566585781841233, -32.21875 -42 M-32.21875 42 C-32.21875 11.678841019974449, -32.21875 -18.642317960051102, -32.21875 -42"></path></g><g transform="translate(0, -18)" class="annotation-group text"></g><g transform="translate(-20.21875, -18)" class="label-group text"><g transform="translate(0,-12)" style="font-weight: bolder" class="label"><foreignObject height="24" width="40.4375"><div style="display: table-cell; white-space: nowrap; line-height: 1.5; max-width: 90px; text-align: center;" xmlns="http://www.w3.org/1999/xhtml"><span style="" class="nodeLabel markdown-node-label"><p>Thing</p></span></div></foreignObject></g></g><g transform="translate(-20.21875, 30)" class="members-group text"></g><g transform="translate(-20.21875, 60)" class="methods-group text"></g><g style="" class="divider"><path style="" fill="none" stroke-width="1.3" stroke="#9370DB" d="M-32.21875 6 C-17.948497732877684 6, -3.678245465755367 6, 32.21875 6 M-32.21875 6 C-9.587445300263912 6, 13.043859399472176 6, 32.21875 6"></path></g><g style="" class="divider"><path style="" fill="none" stroke-width="1.3" stroke="#9370DB" d="M-32.21875 24 C-7.608806922841612 24, 17.001136154316775 24, 32.21875 24 M-32.21875 24 C-6.5448547984200545 24, 19.12904040315989 24, 32.21875 24"></path></g></g></g></g></g></svg>
