<svg aria-roledescription="class" role="graphics-document document" viewBox="0 0 81.453125 234" height="234" class="classDiagram" xmlns="http://www.w3.org/2000/svg" width="81.453125" id="container"><style>#container{font-family:"trebuchet ms",verdana,arial,sans-serif;font-size:16px;fill:#333;}#container .error-icon{fill:#552222;}#container .error-text{fill:#552222;stroke:#552222;}#container .edge-thickness-normal{stroke-width:1px;}#container .edge-thickness-thick{stroke-width:3.5px;}#container .edge-pattern-solid{stroke-dasharray:0;}#container .edge-thickness-invisible{stroke-width:0;fill:none;}#container .edge-pattern-dashed{stroke-dasharray:3;}#container .edge-pattern-dotted{stroke-dasharray:2;}#container .marker{fill:#333333;stroke:#333333;}#container .marker.cross{stroke:#333333;}#container svg{font-family:"trebuchet ms",verdana,arial,sans-serif;font-size:16px;}#container p{margin:0;}#container g.classGroup text{fill:#9370DB;stroke:none;font-family:"trebuchet ms",verdana,arial,sans-serif;font-size:10px;}#container g.classGroup text .title{font-weight:bolder;}#container .nodeLabel,#container .edgeLabel{color:#131300;}#container .edgeLabel .label rect{fill:#ECECFF;}#container .label text{fill:#131300;}#container .labelBkg{background:#ECECFF;}#container .edgeLabel .label span{background:#ECECFF;}#container .classTitle{font-weight:bolder;}#container .node rect,#container .node circle,#container .node ellipse,#container .node polygon,#container .node path{fill:#ECECFF;stroke:#9370DB;stroke-width:1px;}#container .divider{stroke:#9370DB;stroke-width:1;}#container g.clickable{cursor:pointer;}#container g.classGroup rect{fill:#ECECFF;stroke:#9370DB;}#container g.classGroup line{stroke:#9370DB;stroke-width:1;}#container .classLabel .box{stroke:none;stroke-width:0;fill:#ECECFF;opacity:0.5;}#container .classLabel .label{fill:#9370DB;font-size:10px;}#container .relation{stroke:#333333;stroke-width:1;fill:none;}#container .dashed-line{stroke-dasharray:3;}#container .dotted-line{stroke-dasharray:1 2;}#container #compositionStart,#container .composition{fill:#333333!important;stroke:#333333!important;stroke-width:1;}#container #compositionEnd,#container .composition{fill:#333333!important;stroke:#333333!important;stroke-width:1;}#container #dependencyStart,#container .dependency{fill:#333333!important;stroke:#333333!important;stroke-width:1;}#container #dependencyStart,#container .dependency{fill:#333333!important;stroke:#333333!important;stroke-width:1;}#container #extensionStart,#container .extension{fill:transparent!important;stroke:#333333!important;stroke-width:1;}#container #extensionEnd,#container .extension{fill:transparent!important;stroke:#333333!important;stroke-width:1;}#container #aggregationStart,#container .aggregation{fill:transparent!important;stroke:#333333!important;stroke-width:1;}#container #aggregationEnd,#container .aggregation{fill:transparent!important;stroke:#333333!important;stroke-width:1;}#container #lollipopStart,#container .lollipop{fill:#ECECFF!important;stroke:#333333!important;stroke-width:1;}#container #lollipopEnd,#container .lollipop{fill:#ECECFF!important;stroke:#333333!important;stroke-width:1;}#container .edgeTerminals{font-size:11px;line-height:initial;}#container .classTitleText{text-anchor:middle;font-size:18px;fill:#333;}#container :root{--mermaid-font-family:"trebuchet ms",verdana,arial,sans-serif;}</style><g><defs><marker orient="auto" markerHeight="240" markerWidth="190" refY="7" refX="18" class="marker aggregation class" id="container_class-aggregationStart"><path d="M 18,7 L9,13 L1,7 L9,1 Z"></path></marker></defs><defs><marker orient="auto" markerHeight="28" markerWidth="20" refY="7" refX="1" class="marker aggregation class" id="container_class-aggregationEnd"><path d="M 18,7 L9,13 L1,7 L9,1 Z"></path></marker></defs><defs><marker orient="auto" markerHeight="240" markerWidth="190" refY="7" refX="18" class="marker extension class" id="container_class-extensionStart"><path d="M 1,7 L18,13 V 1 Z"></path></marker></defs><defs><marker orient="auto" markerHeight="28" markerWidth="20" refY="7" refX="1" class="marker extension class" id="container_class-extensionEnd"><path d="M 1,1 V 13 L18,7 Z"></path></marker></defs><defs><marker orient="auto" markerHeight="240" markerWidth="190" refY="7" refX="18" class="marker composition class" id="container_class-compositionStart"><path d="M 18,7 L9,13 L1,7 L9,1 Z"></path></marker></defs><defs><marker orient="auto" markerHeight="28" markerWidth="20" refY="7" refX="1" class="marker composition class" id="container_class-compositionEnd"><path d="M 18,7 L9,13 L1,7 L9,1 Z"></path></marker></defs><defs><marker orient="auto" markerHeight="240" markerWidth="190" refY="7" refX="6" class="marker dependency class" id="container_class-dependencyStart"><path d="M 5,7 L9,13 L1,7 L9,1 Z"></path></marker></defs><defs><marker orient="auto" markerHeight="28" markerWidth="20" refY="7" refX="13" class="marker dependency class" id="container_class-dependencyEnd"><path d="M 18,7 L9,13 L14,7 L9,1 Z"></path></marker></defs><defs><marker orient="auto" markerHeight="240" markerWidth="190" refY="7" refX="13" class="marker lollipop class" id="container_class-lollipopStart"><circle r="6" cy="7" cx="7" fill="transparent" stroke="black"></circle></marker></defs><defs><marker orient="auto" markerHeight="240" markerWidth="190" refY="7" refX="1" class="marker lollipop class" id="container_class-lollipopEnd"><circle r="6" cy="7" cx="7" fill="transparent" stroke="black"></circle></marker></defs><g class="root"><g class="clusters"></g><g class="edgePaths"><path marker-start="url(#container_class-extensionStart)" style=";" class="edge-thickness-normal edge-pattern-solid relation" id="id_Thing_Game_1" d="M40.727,110L40.727,111.167C40.727,112.333,40.727,114.667,40.727,120C40.727,125.333,40.727,133.667,40.727,137.833L40.727,142"></path></g><g class="edgeLabels"><g class="edgeLabel"><g transform="translate(0, -12)" class="label"><foreignObject height="24" width="0"><div class="labelBkg" xmlns="http://www.w3.org/1999/xhtml" style="display: table-cell; white-space: nowrap; line-height: 1.5; max-width: 200px; text-align: center;"><span class="edgeLabel" style=";display: inline-block"></span></div></foreignObject></g></g></g><g class="nodes"><g transform="translate(40.7265625, 50)" id="classId-Thing-0" class="node default"><g class="basic label-container"><path style="" fill="#ECECFF" stroke-width="0" stroke="none" d="M-32.21875 -42 L32.21875 -42 L32.21875 42 L-32.21875 42"></path><path style="" fill="none" stroke-width="1.3" stroke="#9370DB" d="M-32.21875 -42 C-15.292417597043393 -42, 1.6339148059132143 -42, 32.21875 -42 M-32.21875 -42 C-12.441727667593888 -42, 7.335294664812224 -42, 32.21875 -42 M32.21875 -42 C32.21875 -20.047885071186265, 32.21875 1.9042298576274703, 32.21875 42 M32.21875 -42 C32.21875 -13.58008456439168, 32.21875 14.839830871216641, 32.21875 42 M32.21875 42 C13.550704996946248 42, -5.117340006107504 42, -32.21875 42 M32.21875 42 C12.207739090226312 42, -7.803271819547376 42, -32.21875 42 M-32.21875 42 C-32.21875 19.32785713610352, -32.21875 -3.3442857277929576, -32.21875 -42 M-32.21875 42 C-32.21875 15.276318302572175, -32.21875 -11.44736339485565, -32.21875 -42"></path></g><g transform="translate(0, -18)" class="annotation-group text"></g><g transform="translate(-20.21875, -18)" class="label-group text"><g transform="translate(0,-12)" style="font-weight: bolder" class="label"><foreignObject height="24" width="40.4375"><div style="display: table-cell; white-space: nowrap; line-height: 1.5; max-width: 90px; text-align: center;" xmlns="http://www.w3.org/1999/xhtml"><span style="" class="nodeLabel markdown-node-label"><p>Thing</p></span></div></foreignObject></g></g><g transform="translate(-20.21875, 30)" class="members-group text"></g><g transform="translate(-20.21875, 60)" class="methods-group text"></g><g style="" class="divider"><path style="" fill="none" stroke-width="1.3" stroke="#9370DB" d="M-32.21875 6 C-6.7253700138235 6, 18.768009972353 6, 32.21875 6 M-32.21875 6 C-7.783193495171851 6, 16.6523630096563 6, 32.21875 6"></path></g><g style="" class="divider"><path style="" fill="none" stroke-width="1.3" stroke="#9370DB" d="M-32.21875 24 C-13.709676660916465 24, 4.799396678167071 24, 32.21875 24 M-32.21875 24 C-18.333989344526188 24, -4.449228689052372 24, 32.21875 24"></path></g></g><g transform="translate(40.7265625, 184)" id="classId-Game-1" class="node default"><g class="basic label-container"><path style="" fill="#ECECFF" stroke-width="0" stroke="none" d="M-32.7265625 -42 L32.7265625 -42 L32.7265625 42 L-32.7265625 42"></path><path style="" fill="none" stroke-width="1.3" stroke="#9370DB" d="M-32.7265625 -42 C-17.96525186031345 -42, -3.203941220626902 -42, 32.7265625 -42 M-32.7265625 -42 C-8.285425850174246 -42, 16.15571079965151 -42, 32.7265625 -42 M32.7265625 -42 C32.7265625 -11.6916446149534, 32.7265625 18.6167107700932, 32.7265625 42 M32.7265625 -42 C32.7265625 -16.35221989488116, 32.7265625 9.295560210237682, 32.7265625 42 M32.7265625 42 C10.395872355755046 42, -11.934817788489909 42, -32.7265625 42 M32.7265625 42 C8.851527790895794 42, -15.023506918208412 42, -32.7265625 42 M-32.7265625 42 C-32.7265625 12.72468622644978, -32.7265625 -16.55062754710044, -32.7265625 -42 M-32.7265625 42 C-32.7265625 8.560150192554602, -32.7265625 -24.879699614890797, -32.7265625 -42"></path></g><g transform="translate(0, -18)" class="annotation-group text"></g><g transform="translate(-20.7265625, -18)" class="label-group text"><g transform="translate(0,-12)" style="font-weight: bolder" class="label"><foreignObject height="24" width="41.453125"><div style="display: table-cell; white-space: nowrap; line-height: 1.5; max-width: 92px; text-align: center;" xmlns="http://www.w3.org/1999/xhtml"><span style="" class="nodeLabel markdown-node-label"><p>Game</p></span></div></foreignObject></g></g><g transform="translate(-20.7265625, 30)" class="members-group text"></g><g transform="translate(-20.7265625, 60)" class="methods-group text"></g><g style="" class="divider"><path style="" fill="none" stroke-width="1.3" stroke="#9370DB" d="M-32.7265625 6 C-13.541668984031592 6, 5.643224531936816 6, 32.7265625 6 M-32.7265625 6 C-9.7410212043098 6, 13.244520091380402 6, 32.7265625 6"></path></g><g style="" class="divider"><path style="" fill="none" stroke-width="1.3" stroke="#9370DB" d="M-32.7265625 24 C-9.282471978723809 24, 14.161618542552382 24, 32.7265625 24 M-32.7265625 24 C-14.496017738427572 24, 3.7345270231448566 24, 32.7265625 24"></path></g></g></g></g></g></svg>