<svg aria-roledescription="er" role="graphics-document document" viewBox="0 0 2059.2015380859375 465" height="465" xmlns="http://www.w3.org/2000/svg" width="2059.2015380859375" id="container"><style>#container{font-family:"trebuchet ms",verdana,arial,sans-serif;font-size:16px;fill:#333;}#container .error-icon{fill:#552222;}#container .error-text{fill:#552222;stroke:#552222;}#container .edge-thickness-normal{stroke-width:1px;}#container .edge-thickness-thick{stroke-width:3.5px;}#container .edge-pattern-solid{stroke-dasharray:0;}#container .edge-thickness-invisible{stroke-width:0;fill:none;}#container .edge-pattern-dashed{stroke-dasharray:3;}#container .edge-pattern-dotted{stroke-dasharray:2;}#container .marker{fill:#333333;stroke:#333333;}#container .marker.cross{stroke:#333333;}#container svg{font-family:"trebuchet ms",verdana,arial,sans-serif;font-size:16px;}#container p{margin:0;}#container .entityBox{fill:#ECECFF;stroke:#9370DB;}#container .attributeBoxOdd{fill:#ffffff;stroke:#9370DB;}#container .attributeBoxEven{fill:#f2f2f2;stroke:#9370DB;}#container .relationshipLabelBox{fill:hsl(80, 100%, 96.2745098039%);opacity:0.7;background-color:hsl(80, 100%, 96.2745098039%);}#container .relationshipLabelBox rect{opacity:0.5;}#container .relationshipLine{stroke:#333333;}#container .entityTitleText{text-anchor:middle;font-size:18px;fill:#333;}#container #MD_PARENT_START{fill:#f5f5f5!important;stroke:#333333!important;stroke-width:1;}#container #MD_PARENT_END{fill:#f5f5f5!important;stroke:#333333!important;stroke-width:1;}#container :root{--mermaid-font-family:"trebuchet ms",verdana,arial,sans-serif;}</style><g></g><defs><marker orient="auto" markerHeight="240" markerWidth="190" refY="7" refX="0" id="MD_PARENT_START"><path d="M 18,7 L9,13 L1,7 L9,1 Z"></path></marker></defs><defs><marker orient="auto" markerHeight="28" markerWidth="20" refY="7" refX="19" id="MD_PARENT_END"><path d="M 18,7 L9,13 L1,7 L9,1 Z"></path></marker></defs><defs><marker orient="auto" markerHeight="18" markerWidth="18" refY="9" refX="0" id="ONLY_ONE_START"><path d="M9,0 L9,18 M15,0 L15,18" fill="none" stroke="gray"></path></marker></defs><defs><marker orient="auto" markerHeight="18" markerWidth="18" refY="9" refX="18" id="ONLY_ONE_END"><path d="M3,0 L3,18 M9,0 L9,18" fill="none" stroke="gray"></path></marker></defs><defs><marker orient="auto" markerHeight="18" markerWidth="30" refY="9" refX="0" id="ZERO_OR_ONE_START"><circle r="6" cy="9" cx="21" fill="white" stroke="gray"></circle><path d="M9,0 L9,18" fill="none" stroke="gray"></path></marker></defs><defs><marker orient="auto" markerHeight="18" markerWidth="30" refY="9" refX="30" id="ZERO_OR_ONE_END"><circle r="6" cy="9" cx="9" fill="white" stroke="gray"></circle><path d="M21,0 L21,18" fill="none" stroke="gray"></path></marker></defs><defs><marker orient="auto" markerHeight="36" markerWidth="45" refY="18" refX="18" id="ONE_OR_MORE_START"><path d="M0,18 Q 18,0 36,18 Q 18,36 0,18 M42,9 L42,27" fill="none" stroke="gray"></path></marker></defs><defs><marker orient="auto" markerHeight="36" markerWidth="45" refY="18" refX="27" id="ONE_OR_MORE_END"><path d="M3,9 L3,27 M9,18 Q27,0 45,18 Q27,36 9,18" fill="none" stroke="gray"></path></marker></defs><defs><marker orient="auto" markerHeight="36" markerWidth="57" refY="18" refX="18" id="ZERO_OR_MORE_START"><circle r="6" cy="18" cx="48" fill="white" stroke="gray"></circle><path d="M0,18 Q18,0 36,18 Q18,36 0,18" fill="none" stroke="gray"></path></marker></defs><defs><marker orient="auto" markerHeight="36" markerWidth="57" refY="18" refX="39" id="ZERO_OR_MORE_END"><circle r="6" cy="18" cx="9" fill="white" stroke="gray"></circle><path d="M21,18 Q39,0 57,18 Q39,36 21,18" fill="none" stroke="gray"></path></marker></defs><path style="stroke: gray; fill: none;" marker-start="url(#ONLY_ONE_START)" marker-end="url(#ZERO_OR_ONE_END)" d="M82.857,270L80.714,278.333C78.571,286.667,74.286,303.333,72.143,320C70,336.667,70,353.333,70,361.667L70,370" class="er relationshipLine"></path><path style="stroke: gray; fill: none;" marker-start="url(#ONLY_ONE_START)" marker-end="url(#ZERO_OR_ONE_END)" d="M145.17,258.464L165.975,268.72C186.78,278.976,228.39,299.488,249.195,318.077C270,336.667,270,353.333,270,361.667L270,370" class="er relationshipLine"></path><path style="stroke: gray; fill: none;" marker-start="url(#ONLY_ONE_START)" marker-end="url(#ZERO_OR_ONE_END)" d="M606.281,256.888L584.716,267.407C563.151,277.925,520.021,298.963,498.456,317.815C476.891,336.667,476.891,353.333,476.891,361.667L476.891,370" class="er relationshipLine"></path><path style="stroke: gray; fill: none;" marker-start="url(#ONLY_ONE_START)" marker-end="url(#ZERO_OR_ONE_END)" d="M706.281,218.611L720.448,214.676C734.615,210.741,762.948,202.87,780.656,198.935C798.365,195,805.448,195,812.531,201.25C819.615,207.5,826.698,220,826.698,232.5C826.698,245,819.615,257.5,812.531,263.75C805.448,270,798.365,270,780.656,266.065C762.948,262.13,734.615,254.259,720.448,250.324L706.281,246.389" class="er relationshipLine"></path><path style="stroke: gray; fill: none;" marker-start="url(#ONLY_ONE_START)" marker-end="url(#ZERO_OR_ONE_END)" d="M668.067,270L670.686,278.333C673.305,286.667,678.543,303.333,681.162,320C683.781,336.667,683.781,353.333,683.781,361.667L683.781,370" class="er relationshipLine"></path><path style="stroke: gray; fill: none;" marker-start="url(#ONLY_ONE_START)" marker-end="url(#ZERO_OR_MORE_END)" d="M706.281,257.148L727.531,267.623C748.781,278.099,791.281,299.049,817.293,317.858C843.305,336.667,852.829,353.333,857.591,361.667L862.353,370" class="er relationshipLine"></path><path style="stroke: gray; fill: none;" marker-start="url(#ONLY_ONE_START)" marker-end="url(#ZERO_OR_ONE_END)" d="M633.781,64.899L543.568,78.249C453.354,91.599,272.927,118.3,182.714,139.983C92.5,161.667,92.5,178.333,92.5,186.667L92.5,195" class="er relationshipLine"></path><path style="stroke: gray; fill: none;" marker-start="url(#ONLY_ONE_START)" marker-end="url(#ZERO_OR_ONE_END)" d="M671.996,95L669.376,103.333C666.757,111.667,661.519,128.333,658.9,145C656.281,161.667,656.281,178.333,656.281,186.667L656.281,195" class="er relationshipLine"></path><path style="stroke: gray; fill: none;" marker-start="url(#ONLY_ONE_START)" marker-end="url(#ZERO_OR_ONE_END)" d="M733.781,63.006L857.871,76.672C981.961,90.338,1230.142,117.669,1354.232,139.668C1478.322,161.667,1478.322,178.333,1478.322,186.667L1478.322,195" class="er relationshipLine"></path><path style="stroke: gray; fill: none;" marker-start="url(#ONLY_ONE_START)" marker-end="url(#ZERO_OR_ONE_END)" d="M1428.322,245.092L1378.748,257.577C1329.174,270.061,1230.026,295.031,1180.452,315.849C1130.878,336.667,1130.878,353.333,1130.878,361.667L1130.878,370" class="er relationshipLine"></path><path style="stroke: gray; fill: none;" marker-start="url(#ONLY_ONE_START)" marker-end="url(#ZERO_OR_MORE_END)" d="M1435.316,270L1425.759,278.333C1416.202,286.667,1397.088,303.333,1387.531,320C1377.974,336.667,1377.974,353.333,1377.974,361.667L1377.974,370" class="er relationshipLine"></path><path style="stroke: gray; fill: none;" marker-start="url(#ONLY_ONE_START)" marker-end="url(#ZERO_OR_MORE_END)" d="M1521.328,270L1530.885,278.333C1540.442,286.667,1559.556,303.333,1569.113,320C1578.67,336.667,1578.67,353.333,1578.67,361.667L1578.67,370" class="er relationshipLine"></path><path style="stroke: gray; fill: none;" marker-start="url(#ONLY_ONE_START)" marker-end="url(#ZERO_OR_MORE_END)" d="M1428.322,240.534L1345.899,253.779C1263.475,267.023,1098.628,293.511,1011.443,315.089C924.257,336.667,914.734,353.333,909.972,361.667L905.21,370" class="er relationshipLine"></path><path style="stroke: gray; fill: none;" marker-start="url(#ONLY_ONE_START)" marker-end="url(#ZERO_OR_MORE_END)" d="M1528.322,246.799L1570.982,258.999C1613.642,271.199,1698.963,295.6,1741.623,316.133C1784.283,336.667,1784.283,353.333,1784.283,361.667L1784.283,370" class="er relationshipLine"></path><path style="stroke: gray; fill: none;" marker-start="url(#ONLY_ONE_START)" marker-end="url(#ZERO_OR_MORE_END)" d="M1528.322,241.064L1605.135,254.22C1681.948,267.376,1835.575,293.688,1912.388,315.177C1989.201,336.667,1989.201,353.333,1989.201,361.667L1989.201,370" class="er relationshipLine"></path><path style="stroke: gray; fill: none;" marker-start="url(#ONLY_ONE_START)" marker-end="url(#ZERO_OR_MORE_END)" d="M1528.322,216.875L1539.989,213.229C1551.655,209.583,1574.989,202.292,1589.572,198.646C1604.155,195,1609.989,195,1615.822,201.25C1621.655,207.5,1627.489,220,1627.489,232.5C1627.489,245,1621.655,257.5,1615.822,263.75C1609.989,270,1604.155,270,1589.572,266.354C1574.989,262.708,1551.655,255.417,1539.989,251.771L1528.322,248.125" class="er relationshipLine"></path><g transform="translate(39.82975769042969,195 )" id="entity-DataEncoding-e949680e-a6e4-55c9-9325-aa69226f3e53"><rect height="75" width="105.34048461914062" y="0" x="0" class="er entityBox"></rect><text style="dominant-baseline: middle; text-anchor: middle; font-size: 12px;" transform="translate(52.67024230957031,37.5)" y="0" x="0" id="text-entity-DataEncoding-e949680e-a6e4-55c9-9325-aa69226f3e53" class="er entityLabel">DataEncoding</text></g><g transform="translate(606.28125,195 )" id="entity-Datatype-eedb5402-d0cc-52bf-9fb8-7b914f648cbe"><rect height="75" width="100" y="0" x="0" class="er entityBox"></rect><text style="dominant-baseline: middle; text-anchor: middle; font-size: 12px;" transform="translate(50,37.5)" y="0" x="0" id="text-entity-Datatype-eedb5402-d0cc-52bf-9fb8-7b914f648cbe" class="er entityLabel">Datatype</text></g><g transform="translate(633.78125,20 )" id="entity-Quantifiable-82d4468d-7a40-5b3c-81f8-69036607af45"><rect height="75" width="100" y="0" x="0" class="er entityBox"></rect><text style="dominant-baseline: middle; text-anchor: middle; font-size: 12px;" transform="translate(50,37.5)" y="0" x="0" id="text-entity-Quantifiable-82d4468d-7a40-5b3c-81f8-69036607af45" class="er entityLabel">Quantifiable</text></g><g transform="translate(1428.3219909667969,195 )" id="entity-Unit-c57ac1ea-0a24-509a-a80e-23f8c03ca739"><rect height="75" width="100" y="0" x="0" class="er entityBox"></rect><text style="dominant-baseline: middle; text-anchor: middle; font-size: 12px;" transform="translate(50,37.5)" y="0" x="0" id="text-entity-Unit-c57ac1ea-0a24-509a-a80e-23f8c03ca739" class="er entityLabel">Unit</text></g><g transform="translate(20,370 )" id="entity-Encoding-1bd3f2aa-2a9a-589f-8d8d-495ffc6a00da"><rect height="75" width="100" y="0" x="0" class="er entityBox"></rect><text style="dominant-baseline: middle; text-anchor: middle; font-size: 12px;" transform="translate(50,37.5)" y="0" x="0" id="text-entity-Encoding-1bd3f2aa-2a9a-589f-8d8d-495ffc6a00da" class="er entityLabel">Encoding</text></g><g transform="translate(220,370 )" id="entity-EndianType-d95ef20a-f1b7-5562-baf4-d38ffa1e0153"><rect height="75" width="100" y="0" x="0" class="er entityBox"></rect><text style="dominant-baseline: middle; text-anchor: middle; font-size: 12px;" transform="translate(50,37.5)" y="0" x="0" id="text-entity-EndianType-d95ef20a-f1b7-5562-baf4-d38ffa1e0153" class="er entityLabel">EndianType</text></g><g transform="translate(420,370 )" id="entity-CardinalityType-796d1111-9b0e-5cfa-a954-3577abec4acc"><rect height="75" width="113.78125" y="0" x="0" class="er entityBox"></rect><text style="dominant-baseline: middle; text-anchor: middle; font-size: 12px;" transform="translate(56.890625,37.5)" y="0" x="0" id="text-entity-CardinalityType-796d1111-9b0e-5cfa-a954-3577abec4acc" class="er entityLabel">CardinalityType</text></g><g transform="translate(633.78125,370 )" id="entity-OrderedType-842b5e5e-013e-581b-9bf8-11371587b713"><rect height="75" width="100" y="0" x="0" class="er entityBox"></rect><text style="dominant-baseline: middle; text-anchor: middle; font-size: 12px;" transform="translate(50,37.5)" y="0" x="0" id="text-entity-OrderedType-842b5e5e-013e-581b-9bf8-11371587b713" class="er entityLabel">OrderedType</text></g><g transform="translate(833.78125,370 )" id="entity-Rule-886caf8e-59ff-5db3-a492-27242971196f"><rect height="75" width="100" y="0" x="0" class="er entityBox"></rect><text style="dominant-baseline: middle; text-anchor: middle; font-size: 12px;" transform="translate(50,37.5)" y="0" x="0" id="text-entity-Rule-886caf8e-59ff-5db3-a492-27242971196f" class="er entityLabel">Rule</text></g><g transform="translate(1033.78125,370 )" id="entity-QuantityKindDimensionVector-bfa1bf26-fcae-516f-8f63-2f454f3dac1b"><rect height="75" width="194.19308471679688" y="0" x="0" class="er entityBox"></rect><text style="dominant-baseline: middle; text-anchor: middle; font-size: 12px;" transform="translate(97.09654235839844,37.5)" y="0" x="0" id="text-entity-QuantityKindDimensionVector-bfa1bf26-fcae-516f-8f63-2f454f3dac1b" class="er entityLabel">QuantityKindDimensionVector</text></g><g transform="translate(1327.9743347167969,370 )" id="entity-Prefix-f6d97b99-faee-5974-b12e-390868d79e86"><rect height="75" width="100" y="0" x="0" class="er entityBox"></rect><text style="dominant-baseline: middle; text-anchor: middle; font-size: 12px;" transform="translate(50,37.5)" y="0" x="0" id="text-entity-Prefix-f6d97b99-faee-5974-b12e-390868d79e86" class="er entityLabel">Prefix</text></g><g transform="translate(1527.9743347167969,370 )" id="entity-QuantityKind-6f79b338-e354-5d95-8035-8883644476ff"><rect height="75" width="101.390625" y="0" x="0" class="er entityBox"></rect><text style="dominant-baseline: middle; text-anchor: middle; font-size: 12px;" transform="translate(50.6953125,37.5)" y="0" x="0" id="text-entity-QuantityKind-6f79b338-e354-5d95-8035-8883644476ff" class="er entityLabel">QuantityKind</text></g><g transform="translate(1729.3649597167969,370 )" id="entity-SystemOfUnits-f7f1da8e-a5af-50e1-94d0-c2e741f40e1d"><rect height="75" width="109.83651733398438" y="0" x="0" class="er entityBox"></rect><text style="dominant-baseline: middle; text-anchor: middle; font-size: 12px;" transform="translate(54.91825866699219,37.5)" y="0" x="0" id="text-entity-SystemOfUnits-f7f1da8e-a5af-50e1-94d0-c2e741f40e1d" class="er entityLabel">SystemOfUnits</text></g><g transform="translate(1939.2014770507812,370 )" id="entity-UCUMcs-8df33f70-0c53-5f8e-a81f-0969bc803a34"><rect height="75" width="100" y="0" x="0" class="er entityBox"></rect><text style="dominant-baseline: middle; text-anchor: middle; font-size: 12px;" transform="translate(50,37.5)" y="0" x="0" id="text-entity-UCUMcs-8df33f70-0c53-5f8e-a81f-0969bc803a34" class="er entityLabel">UCUMcs</text></g><rect height="14" width="50.66828918457031" y="312.46112060546875" x="46.87920379638672" class="er relationshipLabelBox"></rect><text style="text-anchor: middle; dominant-baseline: middle; font-size: 12px;" y="319.46112060546875" x="72.21334838867188" id="rel1" class="er relationshipLabel">encoding</text><rect height="14" width="105.83670043945312" y="293.0104064941406" x="171.22860717773438" class="er relationshipLabelBox"></rect><text style="text-anchor: middle; dominant-baseline: middle; font-size: 12px;" y="300.0104064941406" x="224.14695739746094" id="rel2" class="er relationshipLabel">bitOrder, byteOrder</text><rect height="14" width="57.58837890625" y="292.0524597167969" x="496.24627685546875" class="er relationshipLabelBox"></rect><text style="text-anchor: middle; dominant-baseline: middle; font-size: 12px;" y="299.0524597167969" x="525.0404663085938" id="rel3" class="er relationshipLabel">cardinality</text><rect height="14" width="28.4041748046875" y="225.5" x="812.4959106445312" class="er relationshipLabelBox"></rect><text style="text-anchor: middle; dominant-baseline: middle; font-size: 12px;" y="232.5" x="826.697998046875" id="rel4" class="er relationshipLabel">basis</text><rect height="14" width="68.28125" y="312.2035827636719" x="646.8942260742188" class="er relationshipLabelBox"></rect><text style="text-anchor: middle; dominant-baseline: middle; font-size: 12px;" y="319.2035827636719" x="681.0348510742188" id="rel5" class="er relationshipLabel">orderedType</text><rect height="14" width="43.296875" y="295.39459228515625" x="771.6966552734375" class="er relationshipLabelBox"></rect><text style="text-anchor: middle; dominant-baseline: middle; font-size: 12px;" y="302.39459228515625" x="793.3450927734375" id="rel6" class="er relationshipLabel">hasRule</text><rect height="14" width="74.90847778320312" y="101.02391052246094" x="313.31834411621094" class="er relationshipLabelBox"></rect><text style="text-anchor: middle; dominant-baseline: middle; font-size: 12px;" y="108.02391052246094" x="350.7725830078125" id="rel7" class="er relationshipLabel">dataEncoding</text><rect height="14" width="48.328125" y="137.2034454345703" x="634.8630981445312" class="er relationshipLabelBox"></rect><text style="text-anchor: middle; dominant-baseline: middle; font-size: 12px;" y="144.2034454345703" x="659.0271606445312" id="rel8" class="er relationshipLabel">datatype</text><rect height="14" width="42.404296875" y="99.40492248535156" x="1095.99169921875" class="er relationshipLabelBox"></rect><text style="text-anchor: middle; dominant-baseline: middle; font-size: 12px;" y="106.40492248535156" x="1117.19384765625" id="rel9" class="er relationshipLabel">hasUnit</text><rect height="14" width="304.4981689453125" y="280.7667541503906" x="1112.6275024414062" class="er relationshipLabelBox"></rect><text style="text-anchor: middle; dominant-baseline: middle; font-size: 12px;" y="287.7667541503906" x="1264.8765869140625" id="rel10" class="er relationshipLabel">hasDimensionVector, qkdvDenominator, qkdvNumerator</text><rect height="14" width="30.8402099609375" y="305.53033447265625" x="1376.9918823242188" class="er relationshipLabelBox"></rect><text style="text-anchor: middle; dominant-baseline: middle; font-size: 12px;" y="312.53033447265625" x="1392.4119873046875" id="rel11" class="er relationshipLabel">prefix</text><rect height="14" width="90.4375" y="305.53033447265625" x="1519.0133056640625" class="er relationshipLabelBox"></rect><text style="text-anchor: middle; dominant-baseline: middle; font-size: 12px;" y="312.53033447265625" x="1564.2320556640625" id="rel12" class="er relationshipLabel">hasQuantityKind</text><rect height="14" width="43.296875" y="278.2279968261719" x="1136.760009765625" class="er relationshipLabelBox"></rect><text style="text-anchor: middle; dominant-baseline: middle; font-size: 12px;" y="285.2279968261719" x="1158.408447265625" id="rel13" class="er relationshipLabel">hasRule</text><rect height="14" width="597.5625" y="282.3835754394531" x="1372.7694091796875" class="er relationshipLabelBox"></rect><text style="text-anchor: middle; dominant-baseline: middle; font-size: 12px;" y="289.3835754394531" x="1671.5506591796875" id="rel14" class="er relationshipLabel">applicableSystem, definedUnitOfSystem, derivedCoherentUnitOfSystem, derivedUnitOfSystem, isUnitOfSystem</text><rect height="14" width="57.078125" y="277.057861328125" x="1743.2332763671875" class="er relationshipLabelBox"></rect><text style="text-anchor: middle; dominant-baseline: middle; font-size: 12px;" y="284.057861328125" x="1771.7723388671875" id="rel15" class="er relationshipLabel">ucumCode</text><rect height="14" width="223.1495361328125" y="225.5" x="1515.9142456054688" class="er relationshipLabelBox"></rect><text style="text-anchor: middle; dominant-baseline: middle; font-size: 12px;" y="232.5" x="1627.489013671875" id="rel16" class="er relationshipLabel">exactMatch, hasReciprocalUnit, scalingOf</text></svg>
