<svg aria-roledescription="class" role="graphics-document document" viewBox="0 0 292.875 368" height="368" class="classDiagram" xmlns="http://www.w3.org/2000/svg" width="292.875" id="container"><style>#container{font-family:"trebuchet ms",verdana,arial,sans-serif;font-size:16px;fill:#333;}#container .error-icon{fill:#552222;}#container .error-text{fill:#552222;stroke:#552222;}#container .edge-thickness-normal{stroke-width:1px;}#container .edge-thickness-thick{stroke-width:3.5px;}#container .edge-pattern-solid{stroke-dasharray:0;}#container .edge-thickness-invisible{stroke-width:0;fill:none;}#container .edge-pattern-dashed{stroke-dasharray:3;}#container .edge-pattern-dotted{stroke-dasharray:2;}#container .marker{fill:#333333;stroke:#333333;}#container .marker.cross{stroke:#333333;}#container svg{font-family:"trebuchet ms",verdana,arial,sans-serif;font-size:16px;}#container p{margin:0;}#container g.classGroup text{fill:#9370DB;stroke:none;font-family:"trebuchet ms",verdana,arial,sans-serif;font-size:10px;}#container g.classGroup text .title{font-weight:bolder;}#container .nodeLabel,#container .edgeLabel{color:#131300;}#container .edgeLabel .label rect{fill:#ECECFF;}#container .label text{fill:#131300;}#container .labelBkg{background:#ECECFF;}#container .edgeLabel .label span{background:#ECECFF;}#container .classTitle{font-weight:bolder;}#container .node rect,#container .node circle,#container .node ellipse,#container .node polygon,#container .node path{fill:#ECECFF;stroke:#9370DB;stroke-width:1px;}#container .divider{stroke:#9370DB;stroke-width:1;}#container g.clickable{cursor:pointer;}#container g.classGroup rect{fill:#ECECFF;stroke:#9370DB;}#container g.classGroup line{stroke:#9370DB;stroke-width:1;}#container .classLabel .box{stroke:none;stroke-width:0;fill:#ECECFF;opacity:0.5;}#container .classLabel .label{fill:#9370DB;font-size:10px;}#container .relation{stroke:#333333;stroke-width:1;fill:none;}#container .dashed-line{stroke-dasharray:3;}#container .dotted-line{stroke-dasharray:1 2;}#container #compositionStart,#container .composition{fill:#333333!important;stroke:#333333!important;stroke-width:1;}#container #compositionEnd,#container .composition{fill:#333333!important;stroke:#333333!important;stroke-width:1;}#container #dependencyStart,#container .dependency{fill:#333333!important;stroke:#333333!important;stroke-width:1;}#container #dependencyStart,#container .dependency{fill:#333333!important;stroke:#333333!important;stroke-width:1;}#container #extensionStart,#container .extension{fill:transparent!important;stroke:#333333!important;stroke-width:1;}#container #extensionEnd,#container .extension{fill:transparent!important;stroke:#333333!important;stroke-width:1;}#container #aggregationStart,#container .aggregation{fill:transparent!important;stroke:#333333!important;stroke-width:1;}#container #aggregationEnd,#container .aggregation{fill:transparent!important;stroke:#333333!important;stroke-width:1;}#container #lollipopStart,#container .lollipop{fill:#ECECFF!important;stroke:#333333!important;stroke-width:1;}#container #lollipopEnd,#container .lollipop{fill:#ECECFF!important;stroke:#333333!important;stroke-width:1;}#container .edgeTerminals{font-size:11px;line-height:initial;}#container .classTitleText{text-anchor:middle;font-size:18px;fill:#333;}#container :root{--mermaid-font-family:"trebuchet ms",verdana,arial,sans-serif;}</style><g><defs><marker orient="auto" markerHeight="240" markerWidth="190" refY="7" refX="18" class="marker aggregation class" id="container_class-aggregationStart"><path d="M 18,7 L9,13 L1,7 L9,1 Z"></path></marker></defs><defs><marker orient="auto" markerHeight="28" markerWidth="20" refY="7" refX="1" class="marker aggregation class" id="container_class-aggregationEnd"><path d="M 18,7 L9,13 L1,7 L9,1 Z"></path></marker></defs><defs><marker orient="auto" markerHeight="240" markerWidth="190" refY="7" refX="18" class="marker extension class" id="container_class-extensionStart"><path d="M 1,7 L18,13 V 1 Z"></path></marker></defs><defs><marker orient="auto" markerHeight="28" markerWidth="20" refY="7" refX="1" class="marker extension class" id="container_class-extensionEnd"><path d="M 1,1 V 13 L18,7 Z"></path></marker></defs><defs><marker orient="auto" markerHeight="240" markerWidth="190" refY="7" refX="18" class="marker composition class" id="container_class-compositionStart"><path d="M 18,7 L9,13 L1,7 L9,1 Z"></path></marker></defs><defs><marker orient="auto" markerHeight="28" markerWidth="20" refY="7" refX="1" class="marker composition class" id="container_class-compositionEnd"><path d="M 18,7 L9,13 L1,7 L9,1 Z"></path></marker></defs><defs><marker orient="auto" markerHeight="240" markerWidth="190" refY="7" refX="6" class="marker dependency class" id="container_class-dependencyStart"><path d="M 5,7 L9,13 L1,7 L9,1 Z"></path></marker></defs><defs><marker orient="auto" markerHeight="28" markerWidth="20" refY="7" refX="13" class="marker dependency class" id="container_class-dependencyEnd"><path d="M 18,7 L9,13 L14,7 L9,1 Z"></path></marker></defs><defs><marker orient="auto" markerHeight="240" markerWidth="190" refY="7" refX="13" class="marker lollipop class" id="container_class-lollipopStart"><circle r="6" cy="7" cx="7" fill="transparent" stroke="black"></circle></marker></defs><defs><marker orient="auto" markerHeight="240" markerWidth="190" refY="7" refX="1" class="marker lollipop class" id="container_class-lollipopEnd"><circle r="6" cy="7" cx="7" fill="transparent" stroke="black"></circle></marker></defs><g class="root"><g class="clusters"></g><g class="edgePaths"><path marker-start="url(#container_class-extensionStart)" style=";" class="edge-thickness-normal edge-pattern-solid relation" id="id_Concept_QuantityKindDimensionVector_1" d="M146.438,110L146.438,111.167C146.438,112.333,146.438,114.667,146.438,120C146.438,125.333,146.438,133.667,146.438,137.833L146.438,142"></path><path marker-start="url(#container_class-extensionStart)" style=";" class="edge-thickness-normal edge-pattern-solid relation" id="id_QuantityKindDimensionVector_QuantityKindDimensionVector_ISO_2" d="M146.438,244L146.438,245.167C146.438,246.333,146.438,248.667,146.438,254C146.438,259.333,146.438,267.667,146.438,271.833L146.438,276"></path></g><g class="edgeLabels"><g class="edgeLabel"><g transform="translate(0, -12)" class="label"><foreignObject height="24" width="0"><div class="labelBkg" xmlns="http://www.w3.org/1999/xhtml" style="display: table-cell; white-space: nowrap; line-height: 1.5; max-width: 200px; text-align: center;"><span class="edgeLabel" style=";display: inline-block"></span></div></foreignObject></g></g><g class="edgeLabel"><g transform="translate(0, -12)" class="label"><foreignObject height="24" width="0"><div class="labelBkg" xmlns="http://www.w3.org/1999/xhtml" style="display: table-cell; white-space: nowrap; line-height: 1.5; max-width: 200px; text-align: center;"><span class="edgeLabel" style=";display: inline-block"></span></div></foreignObject></g></g></g><g class="nodes"><g transform="translate(146.4375, 50)" id="classId-Concept-0" class="node default"><g class="basic label-container"><path style="" fill="#ECECFF" stroke-width="0" stroke="none" d="M-41.6875 -42 L41.6875 -42 L41.6875 42 L-41.6875 42"></path><path style="" fill="none" stroke-width="1.3" stroke="#9370DB" d="M-41.6875 -42 C-23.92360487380917 -42, -6.1597097476183365 -42, 41.6875 -42 M-41.6875 -42 C-14.18377969376973 -42, 13.319940612460542 -42, 41.6875 -42 M41.6875 -42 C41.6875 -24.506374150304673, 41.6875 -7.012748300609346, 41.6875 42 M41.6875 -42 C41.6875 -24.59453201187387, 41.6875 -7.18906402374774, 41.6875 42 M41.6875 42 C24.476779574734124 42, 7.266059149468248 42, -41.6875 42 M41.6875 42 C14.904115913788228 42, -11.879268172423544 42, -41.6875 42 M-41.6875 42 C-41.6875 17.447937099227136, -41.6875 -7.104125801545727, -41.6875 -42 M-41.6875 42 C-41.6875 16.56731643289476, -41.6875 -8.86536713421048, -41.6875 -42"></path></g><g transform="translate(0, -18)" class="annotation-group text"></g><g transform="translate(-29.6875, -18)" class="label-group text"><g transform="translate(0,-12)" style="font-weight: bolder" class="label"><foreignObject height="24" width="59.375"><div style="display: table-cell; white-space: nowrap; line-height: 1.5; max-width: 110px; text-align: center;" xmlns="http://www.w3.org/1999/xhtml"><span style="" class="nodeLabel markdown-node-label"><p>Concept</p></span></div></foreignObject></g></g><g transform="translate(-29.6875, 30)" class="members-group text"></g><g transform="translate(-29.6875, 60)" class="methods-group text"></g><g style="" class="divider"><path style="" fill="none" stroke-width="1.3" stroke="#9370DB" d="M-41.6875 6 C-12.796274047132396 6, 16.094951905735208 6, 41.6875 6 M-41.6875 6 C-9.604074017847786 6, 22.479351964304428 6, 41.6875 6"></path></g><g style="" class="divider"><path style="" fill="none" stroke-width="1.3" stroke="#9370DB" d="M-41.6875 24 C-17.797847385336315 24, 6.09180522932737 24, 41.6875 24 M-41.6875 24 C-14.263487766989158 24, 13.160524466021684 24, 41.6875 24"></path></g></g><g transform="translate(146.4375, 184)" id="classId-QuantityKindDimensionVector-1" class="node default"><g class="basic label-container"><path style="" fill="#ECECFF" stroke-width="0" stroke="none" d="M-122.46875 -42 L122.46875 -42 L122.46875 42 L-122.46875 42"></path><path style="" fill="none" stroke-width="1.3" stroke="#9370DB" d="M-122.46875 -42 C-49.25457157558682 -42, 23.959606848826354 -42, 122.46875 -42 M-122.46875 -42 C-40.96411614468849 -42, 40.54051771062302 -42, 122.46875 -42 M122.46875 -42 C122.46875 -13.916382999841389, 122.46875 14.167234000317222, 122.46875 42 M122.46875 -42 C122.46875 -21.915974217607584, 122.46875 -1.8319484352151676, 122.46875 42 M122.46875 42 C70.22823601275456 42, 17.987722025509115 42, -122.46875 42 M122.46875 42 C28.981332179068886 42, -64.50608564186223 42, -122.46875 42 M-122.46875 42 C-122.46875 15.16617063068994, -122.46875 -11.66765873862012, -122.46875 -42 M-122.46875 42 C-122.46875 17.289221317138534, -122.46875 -7.421557365722933, -122.46875 -42"></path></g><g transform="translate(0, -18)" class="annotation-group text"></g><g transform="translate(-110.46875, -18)" class="label-group text"><g transform="translate(0,-12)" style="font-weight: bolder" class="label"><foreignObject height="24" width="220.9375"><div style="display: table-cell; white-space: nowrap; line-height: 1.5; max-width: 271px; text-align: center;" xmlns="http://www.w3.org/1999/xhtml"><span style="" class="nodeLabel markdown-node-label"><p>QuantityKindDimensionVector</p></span></div></foreignObject></g></g><g transform="translate(-110.46875, 30)" class="members-group text"></g><g transform="translate(-110.46875, 60)" class="methods-group text"></g><g style="" class="divider"><path style="" fill="none" stroke-width="1.3" stroke="#9370DB" d="M-122.46875 6 C-52.981907838422984 6, 16.504934323154032 6, 122.46875 6 M-122.46875 6 C-56.650591218959136 6, 9.167567562081729 6, 122.46875 6"></path></g><g style="" class="divider"><path style="" fill="none" stroke-width="1.3" stroke="#9370DB" d="M-122.46875 24 C-39.96891526558544 24, 42.530919468829126 24, 122.46875 24 M-122.46875 24 C-70.51424327240939 24, -18.559736544818776 24, 122.46875 24"></path></g></g><g transform="translate(146.4375, 318)" id="classId-QuantityKindDimensionVector_ISO-2" class="node default"><g class="basic label-container"><path style="" fill="#ECECFF" stroke-width="0" stroke="none" d="M-138.4375 -42 L138.4375 -42 L138.4375 42 L-138.4375 42"></path><path style="" fill="none" stroke-width="1.3" stroke="#9370DB" d="M-138.4375 -42 C-75.24851398323895 -42, -12.059527966477901 -42, 138.4375 -42 M-138.4375 -42 C-38.79220462252668 -42, 60.853090754946635 -42, 138.4375 -42 M138.4375 -42 C138.4375 -11.085438615325163, 138.4375 19.829122769349674, 138.4375 42 M138.4375 -42 C138.4375 -19.37953079578565, 138.4375 3.240938408428697, 138.4375 42 M138.4375 42 C67.64119843136577 42, -3.155103137268469 42, -138.4375 42 M138.4375 42 C38.58329747345819 42, -61.270905053083624 42, -138.4375 42 M-138.4375 42 C-138.4375 21.95134981151873, -138.4375 1.9026996230374635, -138.4375 -42 M-138.4375 42 C-138.4375 19.656299936431033, -138.4375 -2.687400127137934, -138.4375 -42"></path></g><g transform="translate(0, -18)" class="annotation-group text"></g><g transform="translate(-126.4375, -18)" class="label-group text"><g transform="translate(0,-12)" style="font-weight: bolder" class="label"><foreignObject height="24" width="252.875"><div style="display: table-cell; white-space: nowrap; line-height: 1.5; max-width: 302px; text-align: center;" xmlns="http://www.w3.org/1999/xhtml"><span style="" class="nodeLabel markdown-node-label"><p>QuantityKindDimensionVector_ISO</p></span></div></foreignObject></g></g><g transform="translate(-126.4375, 30)" class="members-group text"></g><g transform="translate(-126.4375, 60)" class="methods-group text"></g><g style="" class="divider"><path style="" fill="none" stroke-width="1.3" stroke="#9370DB" d="M-138.4375 6 C-60.35523934665602 6, 17.72702130668796 6, 138.4375 6 M-138.4375 6 C-41.53156936398416 6, 55.37436127203168 6, 138.4375 6"></path></g><g style="" class="divider"><path style="" fill="none" stroke-width="1.3" stroke="#9370DB" d="M-138.4375 24 C-55.96354103349232 24, 26.51041793301536 24, 138.4375 24 M-138.4375 24 C-45.634429638045106 24, 47.16864072390979 24, 138.4375 24"></path></g></g></g></g></g></svg>
