<svg aria-roledescription="class" role="graphics-document document" viewBox="0 0 448.3125 368" height="368" class="classDiagram" xmlns="http://www.w3.org/2000/svg" width="448.3125" id="container"><style>#container{font-family:"trebuchet ms",verdana,arial,sans-serif;font-size:16px;fill:#333;}#container .error-icon{fill:#552222;}#container .error-text{fill:#552222;stroke:#552222;}#container .edge-thickness-normal{stroke-width:1px;}#container .edge-thickness-thick{stroke-width:3.5px;}#container .edge-pattern-solid{stroke-dasharray:0;}#container .edge-thickness-invisible{stroke-width:0;fill:none;}#container .edge-pattern-dashed{stroke-dasharray:3;}#container .edge-pattern-dotted{stroke-dasharray:2;}#container .marker{fill:#333333;stroke:#333333;}#container .marker.cross{stroke:#333333;}#container svg{font-family:"trebuchet ms",verdana,arial,sans-serif;font-size:16px;}#container p{margin:0;}#container g.classGroup text{fill:#9370DB;stroke:none;font-family:"trebuchet ms",verdana,arial,sans-serif;font-size:10px;}#container g.classGroup text .title{font-weight:bolder;}#container .nodeLabel,#container .edgeLabel{color:#131300;}#container .edgeLabel .label rect{fill:#ECECFF;}#container .label text{fill:#131300;}#container .labelBkg{background:#ECECFF;}#container .edgeLabel .label span{background:#ECECFF;}#container .classTitle{font-weight:bolder;}#container .node rect,#container .node circle,#container .node ellipse,#container .node polygon,#container .node path{fill:#ECECFF;stroke:#9370DB;stroke-width:1px;}#container .divider{stroke:#9370DB;stroke-width:1;}#container g.clickable{cursor:pointer;}#container g.classGroup rect{fill:#ECECFF;stroke:#9370DB;}#container g.classGroup line{stroke:#9370DB;stroke-width:1;}#container .classLabel .box{stroke:none;stroke-width:0;fill:#ECECFF;opacity:0.5;}#container .classLabel .label{fill:#9370DB;font-size:10px;}#container .relation{stroke:#333333;stroke-width:1;fill:none;}#container .dashed-line{stroke-dasharray:3;}#container .dotted-line{stroke-dasharray:1 2;}#container #compositionStart,#container .composition{fill:#333333!important;stroke:#333333!important;stroke-width:1;}#container #compositionEnd,#container .composition{fill:#333333!important;stroke:#333333!important;stroke-width:1;}#container #dependencyStart,#container .dependency{fill:#333333!important;stroke:#333333!important;stroke-width:1;}#container #dependencyStart,#container .dependency{fill:#333333!important;stroke:#333333!important;stroke-width:1;}#container #extensionStart,#container .extension{fill:transparent!important;stroke:#333333!important;stroke-width:1;}#container #extensionEnd,#container .extension{fill:transparent!important;stroke:#333333!important;stroke-width:1;}#container #aggregationStart,#container .aggregation{fill:transparent!important;stroke:#333333!important;stroke-width:1;}#container #aggregationEnd,#container .aggregation{fill:transparent!important;stroke:#333333!important;stroke-width:1;}#container #lollipopStart,#container .lollipop{fill:#ECECFF!important;stroke:#333333!important;stroke-width:1;}#container #lollipopEnd,#container .lollipop{fill:#ECECFF!important;stroke:#333333!important;stroke-width:1;}#container .edgeTerminals{font-size:11px;line-height:initial;}#container .classTitleText{text-anchor:middle;font-size:18px;fill:#333;}#container :root{--mermaid-font-family:"trebuchet ms",verdana,arial,sans-serif;}</style><g><defs><marker orient="auto" markerHeight="240" markerWidth="190" refY="7" refX="18" class="marker aggregation class" id="container_class-aggregationStart"><path d="M 18,7 L9,13 L1,7 L9,1 Z"></path></marker></defs><defs><marker orient="auto" markerHeight="28" markerWidth="20" refY="7" refX="1" class="marker aggregation class" id="container_class-aggregationEnd"><path d="M 18,7 L9,13 L1,7 L9,1 Z"></path></marker></defs><defs><marker orient="auto" markerHeight="240" markerWidth="190" refY="7" refX="18" class="marker extension class" id="container_class-extensionStart"><path d="M 1,7 L18,13 V 1 Z"></path></marker></defs><defs><marker orient="auto" markerHeight="28" markerWidth="20" refY="7" refX="1" class="marker extension class" id="container_class-extensionEnd"><path d="M 1,1 V 13 L18,7 Z"></path></marker></defs><defs><marker orient="auto" markerHeight="240" markerWidth="190" refY="7" refX="18" class="marker composition class" id="container_class-compositionStart"><path d="M 18,7 L9,13 L1,7 L9,1 Z"></path></marker></defs><defs><marker orient="auto" markerHeight="28" markerWidth="20" refY="7" refX="1" class="marker composition class" id="container_class-compositionEnd"><path d="M 18,7 L9,13 L1,7 L9,1 Z"></path></marker></defs><defs><marker orient="auto" markerHeight="240" markerWidth="190" refY="7" refX="6" class="marker dependency class" id="container_class-dependencyStart"><path d="M 5,7 L9,13 L1,7 L9,1 Z"></path></marker></defs><defs><marker orient="auto" markerHeight="28" markerWidth="20" refY="7" refX="13" class="marker dependency class" id="container_class-dependencyEnd"><path d="M 18,7 L9,13 L14,7 L9,1 Z"></path></marker></defs><defs><marker orient="auto" markerHeight="240" markerWidth="190" refY="7" refX="13" class="marker lollipop class" id="container_class-lollipopStart"><circle r="6" cy="7" cx="7" fill="transparent" stroke="black"></circle></marker></defs><defs><marker orient="auto" markerHeight="240" markerWidth="190" refY="7" refX="1" class="marker lollipop class" id="container_class-lollipopEnd"><circle r="6" cy="7" cx="7" fill="transparent" stroke="black"></circle></marker></defs><g class="root"><g class="clusters"></g><g class="edgePaths"><path marker-start="url(#container_class-extensionStart)" style=";" class="edge-thickness-normal edge-pattern-solid relation" id="id_Aspect_DataEncoding_1" d="M185.834,205.159L166.539,212.8C147.244,220.44,108.653,235.72,89.358,247.527C70.063,259.333,70.063,267.667,70.063,271.833L70.063,276"></path><path marker-start="url(#container_class-extensionStart)" style=";" class="edge-thickness-normal edge-pattern-solid relation" id="id_Aspect_Quantifiable_2" d="M239.273,244L239.273,245.167C239.273,246.333,239.273,248.667,239.273,254C239.273,259.333,239.273,267.667,239.273,271.833L239.273,276"></path><path marker-start="url(#container_class-extensionStart)" style=";" class="edge-thickness-normal edge-pattern-solid relation" id="id_Aspect_Verifiable_3" d="M292.484,207.136L309.298,214.447C326.112,221.757,359.739,236.379,376.553,247.856C393.367,259.333,393.367,267.667,393.367,271.833L393.367,276"></path><path marker-start="url(#container_class-extensionStart)" style=";" class="edge-thickness-normal edge-pattern-solid relation" id="id_Thing_Aspect_4" d="M239.273,110L239.273,111.167C239.273,112.333,239.273,114.667,239.273,120C239.273,125.333,239.273,133.667,239.273,137.833L239.273,142"></path></g><g class="edgeLabels"><g class="edgeLabel"><g transform="translate(0, -12)" class="label"><foreignObject height="24" width="0"><div class="labelBkg" xmlns="http://www.w3.org/1999/xhtml" style="display: table-cell; white-space: nowrap; line-height: 1.5; max-width: 200px; text-align: center;"><span class="edgeLabel" style=";display: inline-block"></span></div></foreignObject></g></g><g class="edgeLabel"><g transform="translate(0, -12)" class="label"><foreignObject height="24" width="0"><div class="labelBkg" xmlns="http://www.w3.org/1999/xhtml" style="display: table-cell; white-space: nowrap; line-height: 1.5; max-width: 200px; text-align: center;"><span class="edgeLabel" style=";display: inline-block"></span></div></foreignObject></g></g><g class="edgeLabel"><g transform="translate(0, -12)" class="label"><foreignObject height="24" width="0"><div class="labelBkg" xmlns="http://www.w3.org/1999/xhtml" style="display: table-cell; white-space: nowrap; line-height: 1.5; max-width: 200px; text-align: center;"><span class="edgeLabel" style=";display: inline-block"></span></div></foreignObject></g></g><g class="edgeLabel"><g transform="translate(0, -12)" class="label"><foreignObject height="24" width="0"><div class="labelBkg" xmlns="http://www.w3.org/1999/xhtml" style="display: table-cell; white-space: nowrap; line-height: 1.5; max-width: 200px; text-align: center;"><span class="edgeLabel" style=";display: inline-block"></span></div></foreignObject></g></g></g><g class="nodes"><g transform="translate(239.2734375, 184)" id="classId-Aspect-0" class="node default"><g class="basic label-container"><path style="" fill="#ECECFF" stroke-width="0" stroke="none" d="M-36.703125 -42 L36.703125 -42 L36.703125 42 L-36.703125 42"></path><path style="" fill="none" stroke-width="1.3" stroke="#9370DB" d="M-36.703125 -42 C-11.455399361056607 -42, 13.792326277886787 -42, 36.703125 -42 M-36.703125 -42 C-16.656607023328334 -42, 3.389910953343332 -42, 36.703125 -42 M36.703125 -42 C36.703125 -15.822423791210163, 36.703125 10.355152417579674, 36.703125 42 M36.703125 -42 C36.703125 -9.096265395318056, 36.703125 23.807469209363887, 36.703125 42 M36.703125 42 C19.477900777495226 42, 2.252676554990451 42, -36.703125 42 M36.703125 42 C16.38112957159341 42, -3.9408658568131827 42, -36.703125 42 M-36.703125 42 C-36.703125 9.300570435408119, -36.703125 -23.398859129183762, -36.703125 -42 M-36.703125 42 C-36.703125 8.690554775762237, -36.703125 -24.618890448475526, -36.703125 -42"></path></g><g transform="translate(0, -18)" class="annotation-group text"></g><g transform="translate(-24.703125, -18)" class="label-group text"><g transform="translate(0,-12)" style="font-weight: bolder" class="label"><foreignObject height="24" width="49.40625"><div style="display: table-cell; white-space: nowrap; line-height: 1.5; max-width: 99px; text-align: center;" xmlns="http://www.w3.org/1999/xhtml"><span style="" class="nodeLabel markdown-node-label"><p>Aspect</p></span></div></foreignObject></g></g><g transform="translate(-24.703125, 30)" class="members-group text"></g><g transform="translate(-24.703125, 60)" class="methods-group text"></g><g style="" class="divider"><path style="" fill="none" stroke-width="1.3" stroke="#9370DB" d="M-36.703125 6 C-12.3994608777424 6, 11.904203244515202 6, 36.703125 6 M-36.703125 6 C-19.541956476644344 6, -2.3807879532886886 6, 36.703125 6"></path></g><g style="" class="divider"><path style="" fill="none" stroke-width="1.3" stroke="#9370DB" d="M-36.703125 24 C-11.890758330756483 24, 12.921608338487033 24, 36.703125 24 M-36.703125 24 C-19.613218465126582 24, -2.523311930253165 24, 36.703125 24"></path></g></g><g transform="translate(70.0625, 318)" id="classId-DataEncoding-1" class="node default"><g class="basic label-container"><path style="" fill="#ECECFF" stroke-width="0" stroke="none" d="M-62.0625 -42 L62.0625 -42 L62.0625 42 L-62.0625 42"></path><path style="" fill="none" stroke-width="1.3" stroke="#9370DB" d="M-62.0625 -42 C-30.19933477867412 -42, 1.6638304426517578 -42, 62.0625 -42 M-62.0625 -42 C-27.508237800503807 -42, 7.046024398992387 -42, 62.0625 -42 M62.0625 -42 C62.0625 -18.892008052045014, 62.0625 4.215983895909972, 62.0625 42 M62.0625 -42 C62.0625 -14.288373338633054, 62.0625 13.423253322733892, 62.0625 42 M62.0625 42 C19.87837304468286 42, -22.30575391063428 42, -62.0625 42 M62.0625 42 C32.85433843359524 42, 3.6461768671904764 42, -62.0625 42 M-62.0625 42 C-62.0625 15.944477207163715, -62.0625 -10.11104558567257, -62.0625 -42 M-62.0625 42 C-62.0625 15.124427365840099, -62.0625 -11.751145268319803, -62.0625 -42"></path></g><g transform="translate(0, -18)" class="annotation-group text"></g><g transform="translate(-50.0625, -18)" class="label-group text"><g transform="translate(0,-12)" style="font-weight: bolder" class="label"><foreignObject height="24" width="100.125"><div style="display: table-cell; white-space: nowrap; line-height: 1.5; max-width: 152px; text-align: center;" xmlns="http://www.w3.org/1999/xhtml"><span style="" class="nodeLabel markdown-node-label"><p>DataEncoding</p></span></div></foreignObject></g></g><g transform="translate(-50.0625, 30)" class="members-group text"></g><g transform="translate(-50.0625, 60)" class="methods-group text"></g><g style="" class="divider"><path style="" fill="none" stroke-width="1.3" stroke="#9370DB" d="M-62.0625 6 C-26.394270806348572 6, 9.273958387302855 6, 62.0625 6 M-62.0625 6 C-15.740801013865038 6, 30.580897972269923 6, 62.0625 6"></path></g><g style="" class="divider"><path style="" fill="none" stroke-width="1.3" stroke="#9370DB" d="M-62.0625 24 C-16.147111293884336 24, 29.768277412231328 24, 62.0625 24 M-62.0625 24 C-36.16722802868023 24, -10.271956057360448 24, 62.0625 24"></path></g></g><g transform="translate(239.2734375, 318)" id="classId-Quantifiable-2" class="node default"><g class="basic label-container"><path style="" fill="#ECECFF" stroke-width="0" stroke="none" d="M-57.1484375 -42 L57.1484375 -42 L57.1484375 42 L-57.1484375 42"></path><path style="" fill="none" stroke-width="1.3" stroke="#9370DB" d="M-57.1484375 -42 C-12.090949890990217 -42, 32.966537718019566 -42, 57.1484375 -42 M-57.1484375 -42 C-15.726198957123948 -42, 25.696039585752104 -42, 57.1484375 -42 M57.1484375 -42 C57.1484375 -16.7620648882026, 57.1484375 8.475870223594796, 57.1484375 42 M57.1484375 -42 C57.1484375 -9.576208652306235, 57.1484375 22.84758269538753, 57.1484375 42 M57.1484375 42 C31.86755373433994 42, 6.586669968679878 42, -57.1484375 42 M57.1484375 42 C30.347328122370953 42, 3.546218744741907 42, -57.1484375 42 M-57.1484375 42 C-57.1484375 15.318354050594852, -57.1484375 -11.363291898810296, -57.1484375 -42 M-57.1484375 42 C-57.1484375 23.180579204398033, -57.1484375 4.361158408796065, -57.1484375 -42"></path></g><g transform="translate(0, -18)" class="annotation-group text"></g><g transform="translate(-45.1484375, -18)" class="label-group text"><g transform="translate(0,-12)" style="font-weight: bolder" class="label"><foreignObject height="24" width="90.296875"><div style="display: table-cell; white-space: nowrap; line-height: 1.5; max-width: 141px; text-align: center;" xmlns="http://www.w3.org/1999/xhtml"><span style="" class="nodeLabel markdown-node-label"><p>Quantifiable</p></span></div></foreignObject></g></g><g transform="translate(-45.1484375, 30)" class="members-group text"></g><g transform="translate(-45.1484375, 60)" class="methods-group text"></g><g style="" class="divider"><path style="" fill="none" stroke-width="1.3" stroke="#9370DB" d="M-57.1484375 6 C-29.629896103053667 6, -2.1113547061073348 6, 57.1484375 6 M-57.1484375 6 C-30.302570905512958 6, -3.4567043110259164 6, 57.1484375 6"></path></g><g style="" class="divider"><path style="" fill="none" stroke-width="1.3" stroke="#9370DB" d="M-57.1484375 24 C-30.16323397425173 24, -3.1780304485034634 24, 57.1484375 24 M-57.1484375 24 C-30.030803178707625 24, -2.9131688574152506 24, 57.1484375 24"></path></g></g><g transform="translate(393.3671875, 318)" id="classId-Verifiable-3" class="node default"><g class="basic label-container"><path style="" fill="#ECECFF" stroke-width="0" stroke="none" d="M-46.9453125 -42 L46.9453125 -42 L46.9453125 42 L-46.9453125 42"></path><path style="" fill="none" stroke-width="1.3" stroke="#9370DB" d="M-46.9453125 -42 C-13.62598572300005 -42, 19.6933410539999 -42, 46.9453125 -42 M-46.9453125 -42 C-13.181697852666204 -42, 20.581916794667592 -42, 46.9453125 -42 M46.9453125 -42 C46.9453125 -13.870854975123635, 46.9453125 14.25829004975273, 46.9453125 42 M46.9453125 -42 C46.9453125 -9.184640373137597, 46.9453125 23.630719253724806, 46.9453125 42 M46.9453125 42 C23.76102152774355 42, 0.576730555487103 42, -46.9453125 42 M46.9453125 42 C17.50448071655592 42, -11.936351066888157 42, -46.9453125 42 M-46.9453125 42 C-46.9453125 21.34876130285371, -46.9453125 0.6975226057074195, -46.9453125 -42 M-46.9453125 42 C-46.9453125 10.81196090340761, -46.9453125 -20.37607819318478, -46.9453125 -42"></path></g><g transform="translate(0, -18)" class="annotation-group text"></g><g transform="translate(-34.9453125, -18)" class="label-group text"><g transform="translate(0,-12)" style="font-weight: bolder" class="label"><foreignObject height="24" width="69.890625"><div style="display: table-cell; white-space: nowrap; line-height: 1.5; max-width: 121px; text-align: center;" xmlns="http://www.w3.org/1999/xhtml"><span style="" class="nodeLabel markdown-node-label"><p>Verifiable</p></span></div></foreignObject></g></g><g transform="translate(-34.9453125, 30)" class="members-group text"></g><g transform="translate(-34.9453125, 60)" class="methods-group text"></g><g style="" class="divider"><path style="" fill="none" stroke-width="1.3" stroke="#9370DB" d="M-46.9453125 6 C-9.731304326696275 6, 27.48270384660745 6, 46.9453125 6 M-46.9453125 6 C-19.42116553511103 6, 8.102981429777941 6, 46.9453125 6"></path></g><g style="" class="divider"><path style="" fill="none" stroke-width="1.3" stroke="#9370DB" d="M-46.9453125 24 C-21.27686681320741 24, 4.391578873585182 24, 46.9453125 24 M-46.9453125 24 C-23.562109351026557 24, -0.17890620205311336 24, 46.9453125 24"></path></g></g><g transform="translate(239.2734375, 50)" id="classId-Thing-4" class="node default"><g class="basic label-container"><path style="" fill="#ECECFF" stroke-width="0" stroke="none" d="M-32.21875 -42 L32.21875 -42 L32.21875 42 L-32.21875 42"></path><path style="" fill="none" stroke-width="1.3" stroke="#9370DB" d="M-32.21875 -42 C-17.602530947355092 -42, -2.9863118947101874 -42, 32.21875 -42 M-32.21875 -42 C-16.265361526047073 -42, -0.31197305209414594 -42, 32.21875 -42 M32.21875 -42 C32.21875 -24.296673795749765, 32.21875 -6.59334759149953, 32.21875 42 M32.21875 -42 C32.21875 -9.828832900898234, 32.21875 22.34233419820353, 32.21875 42 M32.21875 42 C18.945267177168425 42, 5.671784354336854 42, -32.21875 42 M32.21875 42 C12.186325957920928 42, -7.846098084158143 42, -32.21875 42 M-32.21875 42 C-32.21875 12.726401436297447, -32.21875 -16.547197127405106, -32.21875 -42 M-32.21875 42 C-32.21875 23.857405315467165, -32.21875 5.7148106309343305, -32.21875 -42"></path></g><g transform="translate(0, -18)" class="annotation-group text"></g><g transform="translate(-20.21875, -18)" class="label-group text"><g transform="translate(0,-12)" style="font-weight: bolder" class="label"><foreignObject height="24" width="40.4375"><div style="display: table-cell; white-space: nowrap; line-height: 1.5; max-width: 90px; text-align: center;" xmlns="http://www.w3.org/1999/xhtml"><span style="" class="nodeLabel markdown-node-label"><p>Thing</p></span></div></foreignObject></g></g><g transform="translate(-20.21875, 30)" class="members-group text"></g><g transform="translate(-20.21875, 60)" class="methods-group text"></g><g style="" class="divider"><path style="" fill="none" stroke-width="1.3" stroke="#9370DB" d="M-32.21875 6 C-17.78964771072213 6, -3.360545421444254 6, 32.21875 6 M-32.21875 6 C-16.454867041449884 6, -0.6909840828997673 6, 32.21875 6"></path></g><g style="" class="divider"><path style="" fill="none" stroke-width="1.3" stroke="#9370DB" d="M-32.21875 24 C-8.391791230990915 24, 15.43516753801817 24, 32.21875 24 M-32.21875 24 C-13.76653757665201 24, 4.685674846695981 24, 32.21875 24"></path></g></g></g></g></g></svg>