<svg aria-roledescription="class" role="graphics-document document" viewBox="0 0 229.453125 234" height="234" class="classDiagram" xmlns="http://www.w3.org/2000/svg" width="229.453125" id="container"><style>#container{font-family:"trebuchet ms",verdana,arial,sans-serif;font-size:16px;fill:#333;}#container .error-icon{fill:#552222;}#container .error-text{fill:#552222;stroke:#552222;}#container .edge-thickness-normal{stroke-width:1px;}#container .edge-thickness-thick{stroke-width:3.5px;}#container .edge-pattern-solid{stroke-dasharray:0;}#container .edge-thickness-invisible{stroke-width:0;fill:none;}#container .edge-pattern-dashed{stroke-dasharray:3;}#container .edge-pattern-dotted{stroke-dasharray:2;}#container .marker{fill:#333333;stroke:#333333;}#container .marker.cross{stroke:#333333;}#container svg{font-family:"trebuchet ms",verdana,arial,sans-serif;font-size:16px;}#container p{margin:0;}#container g.classGroup text{fill:#9370DB;stroke:none;font-family:"trebuchet ms",verdana,arial,sans-serif;font-size:10px;}#container g.classGroup text .title{font-weight:bolder;}#container .nodeLabel,#container .edgeLabel{color:#131300;}#container .edgeLabel .label rect{fill:#ECECFF;}#container .label text{fill:#131300;}#container .labelBkg{background:#ECECFF;}#container .edgeLabel .label span{background:#ECECFF;}#container .classTitle{font-weight:bolder;}#container .node rect,#container .node circle,#container .node ellipse,#container .node polygon,#container .node path{fill:#ECECFF;stroke:#9370DB;stroke-width:1px;}#container .divider{stroke:#9370DB;stroke-width:1;}#container g.clickable{cursor:pointer;}#container g.classGroup rect{fill:#ECECFF;stroke:#9370DB;}#container g.classGroup line{stroke:#9370DB;stroke-width:1;}#container .classLabel .box{stroke:none;stroke-width:0;fill:#ECECFF;opacity:0.5;}#container .classLabel .label{fill:#9370DB;font-size:10px;}#container .relation{stroke:#333333;stroke-width:1;fill:none;}#container .dashed-line{stroke-dasharray:3;}#container .dotted-line{stroke-dasharray:1 2;}#container #compositionStart,#container .composition{fill:#333333!important;stroke:#333333!important;stroke-width:1;}#container #compositionEnd,#container .composition{fill:#333333!important;stroke:#333333!important;stroke-width:1;}#container #dependencyStart,#container .dependency{fill:#333333!important;stroke:#333333!important;stroke-width:1;}#container #dependencyStart,#container .dependency{fill:#333333!important;stroke:#333333!important;stroke-width:1;}#container #extensionStart,#container .extension{fill:transparent!important;stroke:#333333!important;stroke-width:1;}#container #extensionEnd,#container .extension{fill:transparent!important;stroke:#333333!important;stroke-width:1;}#container #aggregationStart,#container .aggregation{fill:transparent!important;stroke:#333333!important;stroke-width:1;}#container #aggregationEnd,#container .aggregation{fill:transparent!important;stroke:#333333!important;stroke-width:1;}#container #lollipopStart,#container .lollipop{fill:#ECECFF!important;stroke:#333333!important;stroke-width:1;}#container #lollipopEnd,#container .lollipop{fill:#ECECFF!important;stroke:#333333!important;stroke-width:1;}#container .edgeTerminals{font-size:11px;line-height:initial;}#container .classTitleText{text-anchor:middle;font-size:18px;fill:#333;}#container :root{--mermaid-font-family:"trebuchet ms",verdana,arial,sans-serif;}</style><g><defs><marker orient="auto" markerHeight="240" markerWidth="190" refY="7" refX="18" class="marker aggregation class" id="container_class-aggregationStart"><path d="M 18,7 L9,13 L1,7 L9,1 Z"></path></marker></defs><defs><marker orient="auto" markerHeight="28" markerWidth="20" refY="7" refX="1" class="marker aggregation class" id="container_class-aggregationEnd"><path d="M 18,7 L9,13 L1,7 L9,1 Z"></path></marker></defs><defs><marker orient="auto" markerHeight="240" markerWidth="190" refY="7" refX="18" class="marker extension class" id="container_class-extensionStart"><path d="M 1,7 L18,13 V 1 Z"></path></marker></defs><defs><marker orient="auto" markerHeight="28" markerWidth="20" refY="7" refX="1" class="marker extension class" id="container_class-extensionEnd"><path d="M 1,1 V 13 L18,7 Z"></path></marker></defs><defs><marker orient="auto" markerHeight="240" markerWidth="190" refY="7" refX="18" class="marker composition class" id="container_class-compositionStart"><path d="M 18,7 L9,13 L1,7 L9,1 Z"></path></marker></defs><defs><marker orient="auto" markerHeight="28" markerWidth="20" refY="7" refX="1" class="marker composition class" id="container_class-compositionEnd"><path d="M 18,7 L9,13 L1,7 L9,1 Z"></path></marker></defs><defs><marker orient="auto" markerHeight="240" markerWidth="190" refY="7" refX="6" class="marker dependency class" id="container_class-dependencyStart"><path d="M 5,7 L9,13 L1,7 L9,1 Z"></path></marker></defs><defs><marker orient="auto" markerHeight="28" markerWidth="20" refY="7" refX="13" class="marker dependency class" id="container_class-dependencyEnd"><path d="M 18,7 L9,13 L14,7 L9,1 Z"></path></marker></defs><defs><marker orient="auto" markerHeight="240" markerWidth="190" refY="7" refX="13" class="marker lollipop class" id="container_class-lollipopStart"><circle r="6" cy="7" cx="7" fill="transparent" stroke="black"></circle></marker></defs><defs><marker orient="auto" markerHeight="240" markerWidth="190" refY="7" refX="1" class="marker lollipop class" id="container_class-lollipopEnd"><circle r="6" cy="7" cx="7" fill="transparent" stroke="black"></circle></marker></defs><g class="root"><g class="clusters"></g><g class="edgePaths"><path marker-start="url(#container_class-extensionStart)" style=";" class="edge-thickness-normal edge-pattern-solid relation" id="id_MoveLearning_LearningThroughBreeding_1" d="M114.727,110L114.727,111.167C114.727,112.333,114.727,114.667,114.727,120C114.727,125.333,114.727,133.667,114.727,137.833L114.727,142"></path></g><g class="edgeLabels"><g class="edgeLabel"><g transform="translate(0, -12)" class="label"><foreignObject height="24" width="0"><div class="labelBkg" xmlns="http://www.w3.org/1999/xhtml" style="display: table-cell; white-space: nowrap; line-height: 1.5; max-width: 200px; text-align: center;"><span class="edgeLabel" style=";display: inline-block"></span></div></foreignObject></g></g></g><g class="nodes"><g transform="translate(114.7265625, 50)" id="classId-MoveLearning-0" class="node default"><g class="basic label-container"><path style="" fill="#ECECFF" stroke-width="0" stroke="none" d="M-63.0859375 -42 L63.0859375 -42 L63.0859375 42 L-63.0859375 42"></path><path style="" fill="none" stroke-width="1.3" stroke="#9370DB" d="M-63.0859375 -42 C-15.147649328849177 -42, 32.79063884230165 -42, 63.0859375 -42 M-63.0859375 -42 C-19.416787188053938 -42, 24.252363123892124 -42, 63.0859375 -42 M63.0859375 -42 C63.0859375 -22.53109949063677, 63.0859375 -3.0621989812735393, 63.0859375 42 M63.0859375 -42 C63.0859375 -20.54510783594635, 63.0859375 0.9097843281072997, 63.0859375 42 M63.0859375 42 C35.08461603910269 42, 7.083294578205383 42, -63.0859375 42 M63.0859375 42 C35.16586921855816 42, 7.245800937116314 42, -63.0859375 42 M-63.0859375 42 C-63.0859375 23.84771403429241, -63.0859375 5.6954280685848175, -63.0859375 -42 M-63.0859375 42 C-63.0859375 8.533628163822918, -63.0859375 -24.932743672354164, -63.0859375 -42"></path></g><g transform="translate(0, -18)" class="annotation-group text"></g><g transform="translate(-51.0859375, -18)" class="label-group text"><g transform="translate(0,-12)" style="font-weight: bolder" class="label"><foreignObject height="24" width="102.171875"><div style="display: table-cell; white-space: nowrap; line-height: 1.5; max-width: 152px; text-align: center;" xmlns="http://www.w3.org/1999/xhtml"><span style="" class="nodeLabel markdown-node-label"><p>MoveLearning</p></span></div></foreignObject></g></g><g transform="translate(-51.0859375, 30)" class="members-group text"></g><g transform="translate(-51.0859375, 60)" class="methods-group text"></g><g style="" class="divider"><path style="" fill="none" stroke-width="1.3" stroke="#9370DB" d="M-63.0859375 6 C-32.57160885266137 6, -2.0572802053227406 6, 63.0859375 6 M-63.0859375 6 C-32.425493501229994 6, -1.7650495024599877 6, 63.0859375 6"></path></g><g style="" class="divider"><path style="" fill="none" stroke-width="1.3" stroke="#9370DB" d="M-63.0859375 24 C-36.91777228654914 24, -10.749607073098275 24, 63.0859375 24 M-63.0859375 24 C-21.04688951006387 24, 20.99215847987226 24, 63.0859375 24"></path></g></g><g transform="translate(114.7265625, 184)" id="classId-LearningThroughBreeding-1" class="node default"><g class="basic label-container"><path style="" fill="#ECECFF" stroke-width="0" stroke="none" d="M-106.7265625 -42 L106.7265625 -42 L106.7265625 42 L-106.7265625 42"></path><path style="" fill="none" stroke-width="1.3" stroke="#9370DB" d="M-106.7265625 -42 C-35.044092787059384 -42, 36.63837692588123 -42, 106.7265625 -42 M-106.7265625 -42 C-57.97714516093479 -42, -9.227727821869578 -42, 106.7265625 -42 M106.7265625 -42 C106.7265625 -22.17590579156886, 106.7265625 -2.3518115831377173, 106.7265625 42 M106.7265625 -42 C106.7265625 -13.604527023027053, 106.7265625 14.790945953945894, 106.7265625 42 M106.7265625 42 C55.589667953235036 42, 4.452773406470072 42, -106.7265625 42 M106.7265625 42 C53.16491259620064 42, -0.39673730759872683 42, -106.7265625 42 M-106.7265625 42 C-106.7265625 9.27260772767817, -106.7265625 -23.45478454464366, -106.7265625 -42 M-106.7265625 42 C-106.7265625 18.265874407668424, -106.7265625 -5.468251184663153, -106.7265625 -42"></path></g><g transform="translate(0, -18)" class="annotation-group text"></g><g transform="translate(-94.7265625, -18)" class="label-group text"><g transform="translate(0,-12)" style="font-weight: bolder" class="label"><foreignObject height="24" width="189.453125"><div style="display: table-cell; white-space: nowrap; line-height: 1.5; max-width: 238px; text-align: center;" xmlns="http://www.w3.org/1999/xhtml"><span style="" class="nodeLabel markdown-node-label"><p>LearningThroughBreeding</p></span></div></foreignObject></g></g><g transform="translate(-94.7265625, 30)" class="members-group text"></g><g transform="translate(-94.7265625, 60)" class="methods-group text"></g><g style="" class="divider"><path style="" fill="none" stroke-width="1.3" stroke="#9370DB" d="M-106.7265625 6 C-30.11098635662927 6, 46.50458978674146 6, 106.7265625 6 M-106.7265625 6 C-32.59446567556694 6, 41.537631148866126 6, 106.7265625 6"></path></g><g style="" class="divider"><path style="" fill="none" stroke-width="1.3" stroke="#9370DB" d="M-106.7265625 24 C-29.974901969191222 24, 46.776758561617555 24, 106.7265625 24 M-106.7265625 24 C-62.334976396246084 24, -17.943390292492168 24, 106.7265625 24"></path></g></g></g></g></g></svg>
